<svg width="335" height="95" viewBox="0 0 335 95" fill="none" xmlns="http://www.w3.org/2000/svg">
<path d="M144.132 35.1669H151.648L142.832 20.9071C148.42 19.4618 150.491 15.2233 150.491 11.3213C150.491 6.02197 147.553 0.963512 138.11 0.963512H120.624V35.1669H127.32V21.7749H135.943L144.132 35.1669ZM127.32 5.92472H136.858C141.869 5.92472 143.506 8.38289 143.506 11.3692C143.506 14.4034 141.819 16.9573 136.858 16.9573H127.32V5.92472ZM182.817 36.1304C194.234 36.1304 201.7 29.097 201.7 18.0644C201.7 6.98549 194.234 0 182.817 0C171.4 0 163.932 6.98549 163.932 18.0644C163.932 29.0491 171.4 36.1304 182.817 36.1304ZM182.817 30.8789C175.493 30.8789 170.918 25.8204 170.918 18.0644C170.918 10.2127 175.493 5.25146 182.817 5.25146C190.139 5.25146 194.716 10.2127 194.716 18.0644C194.716 25.9177 190.139 30.8789 182.817 30.8789ZM242.841 0.963512H211.384V6.31073H223.765V35.1669H230.46V6.31073H242.841V0.963512ZM301.998 35.1669H308.068V12.8623C308.068 11.1283 308.02 9.77879 307.972 8.43076H308.116C308.598 9.68304 309.465 11.0311 310.379 12.4285L327.145 35.1669H334.322V0.963512H328.3V23.075C328.3 24.809 328.3 26.2064 328.35 27.556H328.252C327.723 26.2543 326.952 24.9542 325.941 23.5089L309.561 0.963512H301.998V35.1669Z" fill="#A02710"/>
<path d="M23.6047 75.1993C27.7475 74.1879 29.7703 71.1043 29.7703 67.6363C29.7703 63.1553 26.6882 58.7716 18.2096 58.7716H0V92.975H18.7871C27.4587 92.975 30.6859 88.3983 30.6859 83.437C30.6859 78.9561 28.2292 75.9219 23.6047 75.1993ZM16.9573 63.6865C21.6776 63.6865 22.9778 66.0459 22.9778 68.3589C22.9778 70.6705 21.9185 73.1765 16.9573 73.1765H6.69524V63.6865H16.9573ZM17.5348 88.0616H6.69524V77.8968H17.7278C22.0636 77.8968 23.8934 80.0169 23.8934 82.9074C23.8934 85.798 22.1594 88.0616 17.5348 88.0616ZM47.2572 92.975H72.934V87.532H53.9539V58.7716H47.2572V92.975ZM95.0455 87.8686V77.9941H114.412V73.0314H95.0455V63.878H115.23V58.7716H88.3488V92.975H115.567V87.8686H95.0455ZM139.557 58.7716H132.861V92.975H139.557V58.7716ZM173.906 93.9385C183.348 93.9385 189.129 89.3139 191.152 82.0875L184.455 80.7874C183.203 85.7007 179.542 88.5434 174.099 88.5434C166.679 88.5434 162.296 83.2919 162.296 75.8262C162.296 68.118 166.679 63.1553 173.954 63.1553C179.687 63.1553 183.3 66.191 184.264 71.2495L191.152 70.2381C189.659 62.6257 183.685 57.8081 174.147 57.8081C162.537 57.8081 155.358 65.1302 155.358 75.874C155.358 86.4712 162.007 93.9385 173.906 93.9385ZM239.518 58.7716H232.821V72.9835H213.745V58.7716H207.048V92.975H213.745V78.1377H232.821V92.975H239.518V58.7716ZM326.327 92.975H333.842L325.027 78.7167C330.615 77.2714 332.685 73.0314 332.685 69.1294C332.685 63.8301 329.747 58.7716 320.305 58.7716H302.818V92.975H309.515V79.583H318.137L326.327 92.975ZM309.515 63.7343H319.053C324.063 63.7343 325.7 66.191 325.7 69.1773C325.7 72.213 324.014 74.7654 319.053 74.7654H309.515V63.7343Z" fill="#A02710"/>
<path d="M256.255 7.14539H282.542V1.85352H256.255V7.14539Z" fill="white"/>
<path d="M256.255 64.9549H282.542V59.6631H256.255V64.9549Z" fill="white"/>
<path d="M256.255 21.7132H282.542V16.4214H256.255V21.7132Z" fill="white"/>
<path d="M256.255 79.5184H282.542V74.2295H256.255V79.5184Z" fill="white"/>
<path d="M256.255 36.2767H282.542V30.9849H256.255V36.2767Z" fill="white"/>
<path d="M256.255 94.0848H282.542V88.793H256.255V94.0848Z" fill="white"/>
</svg>
