<svg width="260" height="54" viewBox="0 0 260 54" fill="none" xmlns="http://www.w3.org/2000/svg">
<path d="M212.903 21.7202C213.327 19.5997 214.882 17.1965 217.144 17.6206C220.537 18.0447 219.547 23.6993 213.044 26.5266C213.044 26.2439 212.479 24.2648 212.903 21.7202ZM256.443 16.9138C245.558 16.3483 239.479 21.8616 238.349 22.9925C238.349 22.9925 238.49 20.4479 238.349 19.7411C238.207 19.0343 238.066 18.7515 236.652 18.7515C234.249 18.7515 233.401 19.7411 233.118 20.5893C223.788 35.2912 215.306 31.0503 213.751 27.7989C222.516 24.1234 222.516 20.0238 221.809 18.3274C220.254 14.7933 213.186 14.6519 209.651 19.1756C207.531 21.8616 207.107 25.5371 208.379 28.5057C203.855 30.3435 201.028 30.3435 201.028 30.3435C199.473 30.3435 197.777 29.6366 196.929 24.6889C196.646 23.1338 196.363 20.5893 194.949 19.4584C193.112 17.9033 190.143 18.4688 189.578 18.6102C186.75 19.1756 181.944 21.4375 175.724 26.9507C175.441 27.0921 176.713 19.5997 172.614 18.3274C168.09 16.7724 157.488 18.4688 152.823 19.317C151.833 19.0343 150.561 18.8929 149.43 19.0343C147.875 19.1756 147.592 19.7411 147.592 20.0238C147.592 20.3065 147.734 20.5893 148.016 20.7306C148.723 21.1547 150.137 20.7306 150.702 20.5893C152.399 20.3065 153.247 21.1547 153.53 21.4375C154.66 22.427 155.65 24.5475 155.509 27.3748C154.943 33.8776 150.702 34.443 149.854 34.443C146.603 34.5844 145.472 31.7571 145.33 27.6575C145.33 26.8093 145.189 21.2961 145.33 14.2278C145.472 10.2696 145.754 2.49455 145.754 1.64636C145.754 0.515439 145.189 0.232709 144.765 0.0913435C144.482 0.0913435 143.21 -0.191387 141.655 0.232709C140.524 0.515439 140.1 1.36363 139.958 2.35318C139.817 3.9082 139.676 18.1861 139.958 25.3957C132.325 32.888 128.791 30.0607 128.367 29.6366C126.953 28.223 126.812 23.4166 126.812 19.317C126.812 19.0343 126.812 18.3274 124.974 18.1861C122.288 18.0447 121.722 18.6102 121.44 19.0343C114.371 30.3435 106.455 32.6053 105.465 28.3644C104.9 25.9611 105.324 22.2857 105.465 19.0343C105.465 18.7515 105.607 18.1861 105.324 17.9033C105.183 17.6206 104.617 17.4792 103.628 17.4792C102.073 17.4792 101.083 17.6206 100.518 17.762C99.8108 17.9033 99.6694 18.3274 99.6694 18.6102C99.104 20.3065 98.9626 25.2543 99.2453 27.2334C96.7008 29.0712 95.0044 29.778 93.4494 30.2021C89.2084 31.4744 86.6639 29.6366 86.0984 22.7097C86.0984 22.427 86.0984 22.0029 85.957 21.8616C85.8157 21.5788 85.5329 21.5788 85.3916 21.5788C83.8365 21.1547 80.4438 22.0029 79.8783 22.2857C79.4542 22.5684 79.3129 23.1338 79.4542 23.6993C79.5956 24.4061 79.8783 25.2543 79.8783 25.2543C64.3282 36.8463 63.9041 28.5057 70.6896 22.2857C72.9514 20.3065 78.0406 17.0551 83.4125 19.317C84.1193 19.5997 83.6952 18.4688 83.4125 18.1861C81.0092 14.3692 74.9306 16.207 74.2237 16.4897C69.1346 18.1861 65.6005 21.1547 63.3386 23.6993C58.2495 29.2125 60.2286 33.8776 65.1764 33.7362C71.5378 33.7362 80.5852 27.0921 80.5852 27.0921C81.9988 30.6262 83.4125 32.0398 85.3916 32.6053C86.5225 33.0294 92.1771 33.8776 99.5281 28.9298C100.376 31.1917 102.073 32.888 105.607 32.7467C111.12 32.6053 115.785 28.7884 120.591 23.982C120.591 23.982 120.591 32.7467 127.942 32.7467C131.335 32.7467 134.869 31.8985 139.676 27.6575C139.676 28.0816 139.676 28.3644 139.817 28.6471C140.665 36.2808 148.582 35.9981 149.43 35.9981C150.278 35.9981 157.912 35.574 159.043 28.3644C159.325 26.5266 159.467 22.9925 155.509 20.5893C155.509 20.5893 155.367 20.4479 155.226 20.4479C157.205 19.8824 160.598 19.1756 163.708 19.1756C170.069 19.0343 169.645 23.8407 169.504 26.5266V30.2021C169.504 32.0398 170.069 32.4639 171.2 32.6053C171.2 32.6053 172.472 32.7467 173.462 32.4639C174.452 32.1812 175.017 31.1917 175.3 30.7676C180.53 23.5579 188.023 20.0238 189.86 20.4479C191.698 20.872 191.557 26.668 191.557 26.668C191.557 29.6366 191.839 32.888 196.646 32.888C196.787 32.888 201.876 33.1708 208.945 30.2021C210.5 32.3226 213.327 33.8776 217.568 33.5949C221.102 33.4535 227.605 31.6157 232.977 23.8407C232.977 27.2334 232.835 30.2021 232.977 31.333C232.977 31.4744 232.977 32.4639 233.683 32.6053C234.673 32.888 236.228 32.7467 237.076 32.6053C237.783 32.4639 237.924 31.8985 237.924 31.1917C238.066 29.9194 237.924 27.5162 239.055 25.5371C240.893 21.8616 245.841 18.4688 258.564 19.4584C258.988 19.4584 259.695 19.5997 259.836 19.317C260.401 18.7515 259.553 17.0551 256.443 16.9138Z" fill="#A02710"/>
<path d="M23.1909 22.9924C23.7564 22.9924 24.8873 23.9819 24.8873 25.3956C24.8873 29.9192 19.7982 32.6052 14.8504 32.6052C9.90263 32.6052 6.50987 30.3433 6.50987 25.3956C6.50987 22.0028 8.91307 17.055 15.5572 17.055C17.5363 17.055 18.8086 17.4791 20.6464 18.61C20.9291 18.8928 21.6359 19.0341 22.3428 19.0341C23.8978 18.8928 25.0287 18.4687 25.4528 18.0446C25.5941 17.9032 25.7355 17.7619 25.4528 17.4791C22.4841 15.5 18.8086 15.2173 16.6881 15.2173C7.92352 15.2173 -0.275655 20.8719 0.00707482 27.516C0.14844 31.0502 2.69301 33.312 6.65123 34.3016C0.572535 37.2702 0.289805 38.9666 0.289805 39.8148C0.289805 40.3803 0.7139 41.3698 2.69301 41.3698C4.10666 41.3698 6.22714 40.9457 8.91307 39.9562C14.4263 38.1184 17.8191 37.4116 20.2223 37.4116C22.06 37.4116 22.9082 37.8357 23.615 38.6839C25.7355 41.3698 21.6359 51.9722 16.1227 51.9722C13.8608 51.9722 11.3163 50.5585 11.3163 43.773C11.3163 43.6317 11.3163 43.3489 11.1749 43.2076C11.0335 43.0662 10.6095 43.2076 10.4681 43.2076C9.05444 43.6317 7.92352 44.1971 7.07533 44.6212C5.66168 45.328 5.94441 46.459 6.08577 46.8831C7.64079 52.5377 12.3058 53.3858 15.1331 53.3858C23.7564 53.3858 29.9765 44.3385 29.9765 40.2389C29.9765 38.2598 28.8455 35.4325 24.0391 35.4325C20.9291 35.4325 17.6777 36.2807 15.4159 36.8461C14.1436 37.1289 12.8713 37.4116 11.4576 37.6943C8.77171 38.2598 7.07533 38.5425 6.65123 38.5425C5.37895 38.6839 5.23758 38.4012 5.23758 38.1184C5.09622 37.2702 7.64079 35.1498 9.05444 34.7257H10.6095C19.2327 34.7257 29.6937 30.202 29.6937 24.8301C29.6937 23.9819 29.5524 22.851 28.8455 22.0028C30.4006 21.7201 33.652 21.296 35.6311 21.1546C37.3274 21.1546 41.8511 20.5892 41.7098 26.8092C41.7098 28.5056 41.5684 30.202 41.5684 31.1915C41.5684 31.757 41.5684 32.6052 42.8407 32.7466C43.8302 32.8879 45.2439 32.8879 45.9507 32.7466C47.223 32.6052 47.223 31.4743 47.223 31.3329C47.223 30.3433 47.3644 29.3538 47.3644 28.5056C47.6471 23.5578 52.7362 18.0446 67.2968 19.0341C67.4382 19.0341 68.4277 19.0341 68.2864 18.61C68.2864 18.0446 67.4382 17.055 65.3177 16.9137C53.019 16.3482 47.0816 23.1337 46.7989 23.4165C44.2543 19.741 38.5997 19.741 35.207 19.741C31.8142 19.741 24.6046 20.5892 21.7773 21.1546C21.3532 21.296 19.6568 21.7201 20.0809 22.1442C21.0705 22.9924 22.9082 22.9924 23.1909 22.9924Z" fill="#A02710"/>
</svg>
