<?xml version="1.0" encoding="UTF-8"?><svg id="Ebene_2" xmlns="http://www.w3.org/2000/svg" viewBox="0 0 853.55 161.87"><defs><style>.cls-1{fill:#a0270e;stroke-width:0px;}</style></defs><g id="Layer_1"><path class="cls-1" d="M58.12,157.41c-37.19,0-57-19.27-58.12-47.96h28.95c1.33,14.99,11.35,23.98,29.17,23.98,13.36,0,24.49-5.35,24.49-18.41,0-15.2-15.37-20.13-29.62-24.2l-8.91-2.57c-19.15-5.57-39.19-16.91-39.19-41.75C4.9,19.74,27.61,3.26,57.67,3.26c32.07,0,52.33,18.62,53.22,44.1h-28.95c-1.33-11.77-9.13-20.12-24.05-20.12-13.81,0-23.38,7.06-23.38,17.98,0,12.85,13.58,17.13,26.72,20.98l7.79,2.35c14.7,4.28,43.2,14.34,43.2,45.6,0,29.33-25.39,43.25-54.11,43.25"/><polygon class="cls-1" points="168.39 31.31 168.39 71.13 240.96 71.08 240.96 95.74 168.39 95.75 168.39 155.27 140.13 155.27 140.13 5.4 240.97 5.4 240.97 31.31 168.39 31.31"/><path class="cls-1" d="M217.87,145.92c0-9.07,7.36-16.18,16.19-16.18s15.94,7.11,15.94,16.18c0,8.59-7.11,15.95-15.94,15.95s-16.19-7.36-16.19-15.95"/><path class="cls-1" d="M335.85,67.13c-15.57,0-23.87-8.39-24.33-20.89h12.12c.56,6.53,4.75,10.44,12.21,10.44,5.59,0,10.26-2.33,10.26-8.02,0-6.62-6.44-8.76-12.4-10.53l-3.73-1.12c-8.02-2.42-16.41-7.36-16.41-18.18C313.57,7.18,323.08,0,335.67,0c13.43,0,21.91,8.11,22.29,19.21h-12.12c-.56-5.13-3.82-8.76-10.07-8.76-5.78,0-9.79,3.08-9.79,7.83,0,5.59,5.69,7.46,11.19,9.14l3.26,1.03c6.16,1.87,18.09,6.24,18.09,19.86,0,12.77-10.63,18.83-22.66,18.83"/><path class="cls-1" d="M365.95,43.07c0-14.64,10.63-24.43,24.25-24.43,10.81,0,21.07,5.78,22.56,18h-11.94c-1.03-4.29-5.04-7.64-10.62-7.64-7.09,0-12.31,5.78-12.31,14.08s4.85,13.71,12.49,13.71c5.41,0,9.05-2.42,10.53-6.71h12.03c-1.58,10.44-10.44,17.06-22.56,17.06-14.54,0-24.43-9.98-24.43-24.06"/><path class="cls-1" d="M465.26,37.95v28.25h-11.94v-25.83c0-7.65-4.39-11.37-9.98-11.37s-10.72,3.64-10.72,11.94v25.27h-11.94V0h11.94v25.08h.75c2.8-3.63,6.71-6.43,13.71-6.43,11.1,0,18.19,7.08,18.19,19.3"/><path class="cls-1" d="M486.13,38.04h22.28c-.28-5.78-4.56-9.88-10.72-9.88s-10.73,4.29-11.56,9.88M519.88,51.47c-1.86,9.6-9.88,15.66-21.72,15.66-13.89,0-23.96-9.41-23.96-23.78,0-15.38,10.62-24.7,23.49-24.7,11.47,0,22.1,7.27,22.1,23.96,0,1.12-.1,2.14-.2,3.45h-33.56c.47,6.72,4.85,11.56,12.13,11.56,5.21,0,8.94-2.14,10.25-6.15h11.47Z"/><path class="cls-1" d="M529.1,19.58h10.9l1.03,5.5h.75c2.8-3.63,6.71-6.43,13.7-6.43,11.1,0,18.18,7.08,18.18,19.3v28.25h-11.93v-25.82c0-7.65-4.38-11.38-9.98-11.38s-10.72,3.64-10.72,11.94v25.27h-11.93V19.58Z"/><polygon class="cls-1" points="609.08 38.13 628.1 66.2 614.95 66.2 601.06 45.97 596.21 50.63 596.21 66.2 584.28 66.2 584.28 0 596.21 0 596.21 35.71 596.96 35.71 613.74 19.58 628.1 19.58 609.08 38.13"/><polygon class="cls-1" points="325.41 100.54 325.41 117.88 352.82 117.88 352.82 128.61 325.41 128.61 325.41 154.53 313.11 154.53 313.11 89.26 357.02 89.26 357.02 100.54 325.41 100.54"/><rect class="cls-1" x="365.02" y="88.33" width="11.93" height="66.2"/><path class="cls-1" d="M397.84,126.37h22.28c-.28-5.78-4.57-9.88-10.72-9.88s-10.72,4.29-11.56,9.88M431.58,139.79c-1.86,9.6-9.88,15.66-21.72,15.66-13.89,0-23.96-9.41-23.96-23.78,0-15.38,10.63-24.7,23.5-24.7,11.47,0,22.1,7.27,22.1,23.96,0,1.12-.09,2.14-.19,3.45h-33.57c.47,6.72,4.85,11.57,12.12,11.57,5.22,0,8.95-2.15,10.25-6.16h11.47Z"/><path class="cls-1" d="M440.81,107.91h11.94v46.62h-11.94v-46.62ZM439.54,94.76c0-4.1,3.45-7.27,7.36-7.27s7.18,3.17,7.18,7.27c0,3.82-3.26,7.18-7.18,7.18s-7.36-3.36-7.36-7.18"/><path class="cls-1" d="M461.69,139.61h11.47c.65,5.04,4.38,6.99,9.14,6.99,3.63,0,6.8-1.4,6.8-4.76,0-3.54-3.17-5.03-8.2-6.34l-4.39-1.12c-6.24-1.49-13.33-4.01-13.33-13.14s8.21-14.26,17.43-14.26c12.59,0,18.37,6.61,19.03,14.26h-11.48c-.45-3.36-3.06-5.41-7.45-5.41-3.64,0-6.15,1.77-6.15,4.75,0,3.27,3.17,4.1,7.64,5.32l4.38,1.12c8.11,2.05,13.89,5.78,13.89,14.54,0,9.6-8.2,13.89-18.08,13.89-13.15,0-20.05-6.25-20.7-15.85"/><path class="cls-1" d="M508.2,131.4c0-14.64,10.63-24.43,24.24-24.43,10.81,0,21.07,5.78,22.56,18h-11.93c-1.03-4.29-5.04-7.65-10.63-7.65-7.09,0-12.3,5.78-12.3,14.08s4.85,13.71,12.49,13.71c5.4,0,9.04-2.42,10.54-6.71h12.02c-1.59,10.44-10.44,17.06-22.56,17.06-14.54,0-24.43-9.98-24.43-24.06"/><path class="cls-1" d="M606.09,126.28v28.25h-11.93v-25.83c0-7.65-4.38-11.37-9.97-11.37s-10.73,3.64-10.73,11.93v25.27h-11.93v-66.2h11.93v25.08h.75c2.8-3.63,6.71-6.43,13.7-6.43,11.1,0,18.18,7.08,18.18,19.3"/><path class="cls-1" d="M660.9,126.28v28.25h-11.93v-25.83c0-7.65-4.38-11.37-9.97-11.37s-10.73,3.64-10.73,11.93v25.27h-11.93v-66.2h11.93v25.08h.75c2.8-3.63,6.71-6.43,13.7-6.43,11.1,0,18.18,7.08,18.18,19.3"/><path class="cls-1" d="M699.02,134.3l-10.44,1.12c-4.29.47-7.55,2.24-7.55,5.88s2.89,5.03,6.61,5.03c5.04,0,11.38-2.42,11.38-9.79v-2.23ZM715.43,145.58v8.95h-5.03c-4.38,0-7.83-1.3-9.42-5.59-3.17,4.01-8.02,6.52-15.38,6.52-9.52,0-16.51-4.47-16.51-13.71s6.81-13.33,15.38-14.17l14.55-1.49v-1.96c0-5.13-3.25-7.64-7.83-7.64-5.04,0-7.65,2.8-8.39,6.99h-11.93c.93-9.7,8.39-16.5,20.32-16.5,10.9,0,19.77,5.5,19.77,17.99v17.06c0,2.42,1.12,3.54,3.35,3.54h1.12Z"/><polygon class="cls-1" points="748.14 126.46 767.16 154.52 754.01 154.52 740.12 134.29 735.28 138.95 735.28 154.52 723.34 154.52 723.34 88.33 735.28 88.33 735.28 124.04 736.03 124.04 752.8 107.91 767.16 107.91 748.14 126.46"/><path class="cls-1" d="M781.6,126.37h22.28c-.27-5.78-4.56-9.88-10.72-9.88s-10.72,4.29-11.56,9.88M815.35,139.79c-1.86,9.6-9.88,15.66-21.72,15.66-13.89,0-23.96-9.41-23.96-23.78,0-15.38,10.62-24.7,23.49-24.7,11.47,0,22.1,7.27,22.1,23.96,0,1.12-.1,2.14-.19,3.45h-33.56c.47,6.72,4.85,11.57,12.12,11.57,5.22,0,8.95-2.15,10.25-6.16h11.47Z"/><path class="cls-1" d="M823.62,107.91h10.81l1.13,6.62h.75c2.88-4.66,6.05-7.55,13.88-7.55h3.36v11.93c-1.68-.28-3.36-.37-5.03-.37-10.26,0-12.96,7.55-12.96,14.27v21.72h-11.94v-46.62Z"/></g></svg>