<svg width="2216" height="57" viewBox="0 0 2216 57" fill="none" xmlns="http://www.w3.org/2000/svg">
<path d="M264.319 6.83447H303.446V1H264.319V6.83447Z" fill="#A02710"/>
<path d="M264.319 31.7527H303.446V25.9141H264.319V31.7527Z" fill="#A02710"/>
<path d="M264.319 56.6687H303.446V50.8301H264.319V56.6687Z" fill="#A02710"/>
<path d="M0 6.83447H39.127V1H0V6.83447Z" fill="#A02710"/>
<path d="M0 31.7527H39.127V25.9141H0V31.7527Z" fill="#A02710"/>
<path d="M0 56.6687H39.127V50.8301H0V56.6687Z" fill="#A02710"/>
<path d="M376.271 1.45801V7.8034H393.741V56.6712H400.828V7.8034H418.299V1.45801H376.271ZM356.74 1.45801V36.7285L357.152 45.1341L351.466 36.5657L326.827 1.45801H320.481V56.6712H327.651V20.7414L327.239 13.4092L332.183 20.7414L357.482 56.6712H363.91V1.45801H356.74ZM237.167 56.6712H244.337V1.45801H237.167V56.6712ZM182.284 1.45801V7.8034H206.018L213.683 7.39136L205.688 17.4451L180.636 50.985V56.6712H222.664V50.3258H193.739L188.137 50.7378L193.906 43.4035L221.016 7.14414V1.45801H182.284ZM157.892 56.6712H165.061V1.45801H157.892V56.6712ZM105.975 1.45801V56.6712H113.145V33.9266H137.619V27.5812H113.145V7.8034H142.976V1.45801H105.975ZM54.0605 1.45801V56.6712H61.2279V33.9266H85.7029V27.5812H61.2279V7.8034H91.0593V1.45801H54.0605Z" fill="white"/>
<path d="M613.209 56.0372V49.6918H584.284V0.824078H577.115V56.0372H613.209ZM687.87 56.0372V38.2372L697.759 28.0186L716.877 56.0372H725.86L703.033 22.8269L724.377 0.824078H715.394L695.699 21.0964L687.54 29.7492L687.87 18.7889V0.824078H680.701V56.0372H687.87ZM756.927 56.0372V7.16947H774.398V0.824078H732.37V7.16947H749.84V56.0372H756.927ZM794.011 56.0372V34.0344H802.828C808.267 34.0344 811.234 35.3529 813.294 39.0612L823.018 56.0372H831.424L821.535 38.9788C819.804 35.9297 817.744 34.1992 815.189 33.3751C823.677 32.2214 829.693 26.6177 829.693 17.8001C829.693 6.75743 821.699 0.824078 810.904 0.824078H786.841V56.0372H794.011ZM809.75 7.16947C816.343 7.16947 822.276 9.55929 822.276 17.8001C822.276 25.6288 816.343 28.0186 809.75 28.0186H794.011V7.16947H809.75ZM853.507 0.824078H846.337V56.0372H853.507V0.824078ZM894.465 56.8613C905.178 56.8613 913.172 51.0928 913.172 41.5335C913.172 30.6557 904.601 27.6066 896.773 25.7112L890.757 24.2279C884.411 22.6621 880.373 20.6019 880.373 15.0806C880.373 9.97133 884.906 6.92225 891.004 6.92225C898.173 6.92225 903.777 9.97133 906.414 17.4704L912.43 12.6908C909.051 4.45001 901.14 0.0824127 891.169 0.0824127C881.527 0.0824127 872.792 5.52131 872.792 15.5751C872.792 25.9584 881.115 29.2547 888.449 30.9029L893.641 32.0566C900.975 33.7871 905.837 35.3529 905.837 41.6983C905.837 47.714 900.646 50.1039 894.465 50.1039C887.543 50.1039 878.973 46.89 876.418 37.9075L870.979 42.6872C874.605 52.9057 884.082 56.8613 894.465 56.8613ZM954.128 56.6965C966.489 56.6965 974.812 50.1039 978.356 38.7316L971.928 34.5288C970.115 43.7585 964.676 49.9391 954.21 49.9391C941.602 49.9391 935.834 40.9566 935.834 28.3482C935.834 15.7399 941.602 6.75743 954.21 6.75743C964.676 6.75743 970.115 12.938 971.928 22.1677L978.356 17.9649C974.812 6.59262 966.489 0 954.128 0C937.399 0 928.252 12.4436 928.252 28.3482C928.252 44.2529 937.399 56.6965 954.128 56.6965ZM1002.67 56.0372V30.9029H1031.76V56.0372H1038.93V0.824078H1031.76V24.5575H1002.67V0.824078H995.496V56.0372H1002.67Z" fill="white"/>
<path d="M523.056 7.02316H562.183V1.18457H523.056V7.02316Z" fill="#A02710"/>
<path d="M523.056 31.9411H562.183V26.1025H523.056V31.9411Z" fill="#A02710"/>
<path d="M523.056 56.8571H562.183V51.0186H523.056V56.8571Z" fill="#A02710"/>
<path d="M628.531 7.02316H667.658V1.18457H628.531V7.02316Z" fill="#A02710"/>
<path d="M628.529 31.9411H667.656V26.1025H628.529V31.9411Z" fill="#A02710"/>
<path d="M628.531 56.8571H667.658V51.0186H628.531V56.8571Z" fill="#A02710"/>
<path d="M1204.09 0.824078H1196.92V56.0372H1204.09V0.824078ZM1244.88 56.6965C1257.57 56.6965 1264.66 46.9724 1265.07 34.6936L1267.3 56.0372H1271.75V28.3482H1247.36V34.6936H1264.25C1262.19 44.0057 1257.99 49.9391 1247.36 49.9391C1235.41 49.9391 1229.89 40.9566 1229.89 28.3482C1229.89 15.7399 1235.57 6.75743 1248.1 6.75743C1257.82 6.75743 1263.26 12.6908 1265.16 20.5195L1271.58 16.3167C1267.88 5.85095 1259.55 0 1248.02 0C1231.37 0 1222.3 12.1963 1222.3 28.3482C1222.3 45.077 1230.13 56.6965 1244.88 56.6965ZM1352.67 56.0372V20.1075L1352.26 12.7732L1357.2 20.1075L1382.5 56.0372H1388.93V0.824078H1381.76V36.0946L1382.17 44.5002L1376.49 35.9298L1351.85 0.824078H1345.5V56.0372H1352.67ZM1429.89 56.8613C1440.6 56.8613 1448.59 51.0928 1448.59 41.5335C1448.59 30.6557 1440.02 27.6066 1432.19 25.7112L1426.18 24.2279C1419.83 22.6621 1415.79 20.6019 1415.79 15.0806C1415.79 9.97133 1420.33 6.92225 1426.43 6.92225C1433.59 6.92225 1439.2 9.97133 1441.84 17.4704L1447.85 12.6908C1444.47 4.45002 1436.56 0.0824127 1426.59 0.0824127C1416.95 0.0824127 1408.21 5.52132 1408.21 15.5751C1408.21 25.9584 1416.54 29.2547 1423.87 30.9029L1429.06 32.0566C1436.4 33.7872 1441.26 35.3529 1441.26 41.6983C1441.26 47.714 1436.07 50.1039 1429.89 50.1039C1422.96 50.1039 1414.39 46.89 1411.84 37.9075L1406.4 42.6872C1410.03 52.9057 1419.5 56.8613 1429.89 56.8613Z" fill="white"/>
<path d="M1292.14 7.02316H1331.26V1.18457H1292.14V7.02316Z" fill="#A02710"/>
<path d="M1292.14 31.9411H1331.26V26.1025H1292.14V31.9411Z" fill="#A02710"/>
<path d="M1292.14 56.8571H1331.26V51.0186H1292.14V56.8571Z" fill="#A02710"/>
<path d="M1142.86 7.02316H1181.99V1.18457H1142.86V7.02316Z" fill="#A02710"/>
<path d="M1142.86 31.9411H1181.99V26.1025H1142.86V31.9411Z" fill="#A02710"/>
<path d="M1142.86 56.8571H1181.99V51.0186H1142.86V56.8571Z" fill="#A02710"/>
<path d="M1614.71 0.824078H1607.54V56.0372H1614.71V0.824078ZM1643.96 56.0372V20.1075L1643.55 12.7732L1648.49 20.1075L1673.79 56.0372H1680.22V0.824078H1673.05V36.0946L1673.46 44.5002L1667.78 35.9298L1643.14 0.824078H1636.79V56.0372H1643.96ZM1709.47 56.0372V33.2927H1733.95V26.9473H1709.47V7.16947H1739.3V0.824078H1702.3V56.0372H1709.47ZM1752.24 56.0372L1758.26 40.627H1782.4L1788.42 56.0372H1796.33L1774.08 0.824078H1766.91L1744.66 56.0372H1752.24ZM1767.57 16.8112L1770.37 8.15837L1773.09 16.8112L1779.93 34.2816H1760.73L1767.57 16.8112ZM1845.28 56.0372V49.6918H1816.35V0.824078H1809.19V56.0372H1845.28ZM1894.81 56.0372V49.6918H1865.88V0.824078H1858.71V56.0372H1894.81ZM1929.17 56.8613C1939.88 56.8613 1947.87 51.0928 1947.87 41.5335C1947.87 30.6557 1939.3 27.6066 1931.48 25.7112L1925.46 24.2279C1919.11 22.6621 1915.08 20.6019 1915.08 15.0806C1915.08 9.97133 1919.61 6.92225 1925.71 6.92225C1932.88 6.92225 1938.48 9.97133 1941.12 17.4704L1947.13 12.6908C1943.75 4.45002 1935.84 0.0824127 1925.87 0.0824127C1916.23 0.0824127 1907.5 5.52131 1907.5 15.5751C1907.5 25.9584 1915.82 29.2547 1923.15 30.9029L1928.34 32.0566C1935.68 33.7871 1940.54 35.3529 1940.54 41.6983C1940.54 47.714 1935.35 50.1039 1929.17 50.1039C1922.25 50.1039 1913.68 46.89 1911.12 37.9075L1905.68 42.6872C1909.31 52.9057 1918.79 56.8613 1929.17 56.8613ZM1973.09 56.0372V34.0344H1981.91C1987.35 34.0344 1990.31 35.3529 1992.37 39.0612L2002.1 56.0372H2010.5L2000.62 38.9788C1998.88 35.9298 1996.82 34.1992 1994.27 33.3751C2002.76 32.2214 2008.77 26.6177 2008.77 17.8001C2008.77 6.75743 2000.78 0.824078 1989.98 0.824078H1965.92V56.0372H1973.09ZM1988.83 7.16947C1995.42 7.16947 2001.36 9.5593 2001.36 17.8001C2001.36 25.6288 1995.42 28.0186 1988.83 28.0186H1973.09V7.16947H1988.83ZM2086.65 0.824078H2079.48V56.0372H2086.65V0.824078ZM2130.74 56.6965C2143.1 56.6965 2151.42 50.1039 2154.96 38.7316L2148.54 34.5288C2146.72 43.7585 2141.28 49.9391 2130.82 49.9391C2118.21 49.9391 2112.44 40.9566 2112.44 28.3482C2112.44 15.7399 2118.21 6.75743 2130.82 6.75743C2141.28 6.75743 2146.72 12.938 2148.54 22.1677L2154.96 17.9649C2151.42 6.59262 2143.1 0 2130.74 0C2114.01 0 2104.86 12.4436 2104.86 28.3482C2104.86 44.2529 2114.01 56.6965 2130.74 56.6965ZM2179.27 56.0372V30.9029H2208.36V56.0372H2215.53V0.824078H2208.36V24.5575H2179.27V0.824078H2172.1V56.0372H2179.27Z" fill="white"/>
<path d="M2025.84 7.02316H2064.97V1.18457H2025.84V7.02316Z" fill="#A02710"/>
<path d="M2025.84 31.9411H2064.97V26.1025H2025.84V31.9411Z" fill="#A02710"/>
<path d="M2025.84 56.8571H2064.97V51.0186H2025.84V56.8571Z" fill="#A02710"/>
<path d="M1553.48 7.02316H1592.6V1.18457H1553.48V7.02316Z" fill="#A02710"/>
<path d="M1553.48 31.9411H1592.6V26.1025H1553.48V31.9411Z" fill="#A02710"/>
<path d="M1553.48 56.8571H1592.6V51.0186H1553.48V56.8571Z" fill="#A02710"/>
<circle cx="465" cy="29" r="5" fill="#A02710"/>
<circle cx="1091" cy="29" r="5" fill="#A02710"/>
<circle cx="1501" cy="29" r="5" fill="#A02710"/>
</svg>
