<svg width="2279" height="57" viewBox="0 0 2279 57" fill="none" xmlns="http://www.w3.org/2000/svg">
<path d="M327.319 6.83447H366.446V1H327.319V6.83447Z" fill="#A02710"/>
<path d="M327.319 31.7527H366.446V25.9141H327.319V31.7527Z" fill="#A02710"/>
<path d="M327.319 56.6687H366.446V50.8301H327.319V56.6687Z" fill="#A02710"/>
<path d="M63 6.83447H102.127V1H63V6.83447Z" fill="#A02710"/>
<path d="M63 31.7527H102.127V25.9141H63V31.7527Z" fill="#A02710"/>
<path d="M63 56.6687H102.127V50.8301H63V56.6687Z" fill="#A02710"/>
<path d="M439.271 1.45801V7.8034H456.741V56.6712H463.828V7.8034H481.299V1.45801H439.271ZM419.74 1.45801V36.7285L420.152 45.1341L414.466 36.5657L389.827 1.45801H383.481V56.6712H390.651V20.7414L390.239 13.4092L395.183 20.7414L420.482 56.6712H426.91V1.45801H419.74ZM300.167 56.6712H307.337V1.45801H300.167V56.6712ZM245.284 1.45801V7.8034H269.018L276.683 7.39136L268.688 17.4451L243.636 50.985V56.6712H285.664V50.3258H256.739L251.137 50.7378L256.906 43.4035L284.016 7.14414V1.45801H245.284ZM220.892 56.6712H228.061V1.45801H220.892V56.6712ZM168.975 1.45801V56.6712H176.145V33.9266H200.619V27.5812H176.145V7.8034H205.976V1.45801H168.975ZM117.061 1.45801V56.6712H124.228V33.9266H148.703V27.5812H124.228V7.8034H154.059V1.45801H117.061Z" fill="white"/>
<path d="M676.209 56.0372V49.6918H647.284V0.824078H640.115V56.0372H676.209ZM750.87 56.0372V38.2372L760.759 28.0186L779.877 56.0372H788.86L766.033 22.8269L787.377 0.824078H778.394L758.699 21.0964L750.54 29.7492L750.87 18.7889V0.824078H743.701V56.0372H750.87ZM819.927 56.0372V7.16947H837.398V0.824078H795.37V7.16947H812.84V56.0372H819.927ZM857.011 56.0372V34.0344H865.828C871.267 34.0344 874.234 35.3529 876.294 39.0612L886.018 56.0372H894.424L884.535 38.9788C882.804 35.9297 880.744 34.1992 878.189 33.3751C886.677 32.2214 892.693 26.6177 892.693 17.8001C892.693 6.75743 884.699 0.824078 873.904 0.824078H849.841V56.0372H857.011ZM872.75 7.16947C879.343 7.16947 885.276 9.55929 885.276 17.8001C885.276 25.6288 879.343 28.0186 872.75 28.0186H857.011V7.16947H872.75ZM916.507 0.824078H909.337V56.0372H916.507V0.824078ZM957.465 56.8613C968.178 56.8613 976.172 51.0928 976.172 41.5335C976.172 30.6557 967.601 27.6066 959.773 25.7112L953.757 24.2279C947.411 22.6621 943.373 20.6019 943.373 15.0806C943.373 9.97133 947.906 6.92225 954.004 6.92225C961.173 6.92225 966.777 9.97133 969.414 17.4704L975.43 12.6908C972.051 4.45001 964.14 0.0824127 954.169 0.0824127C944.527 0.0824127 935.792 5.52131 935.792 15.5751C935.792 25.9584 944.115 29.2547 951.449 30.9029L956.641 32.0566C963.975 33.7871 968.837 35.3529 968.837 41.6983C968.837 47.714 963.646 50.1039 957.465 50.1039C950.543 50.1039 941.973 46.89 939.418 37.9075L933.979 42.6872C937.605 52.9057 947.082 56.8613 957.465 56.8613ZM1017.13 56.6965C1029.49 56.6965 1037.81 50.1039 1041.36 38.7316L1034.93 34.5288C1033.12 43.7585 1027.68 49.9391 1017.21 49.9391C1004.6 49.9391 998.834 40.9566 998.834 28.3482C998.834 15.7399 1004.6 6.75743 1017.21 6.75743C1027.68 6.75743 1033.12 12.938 1034.93 22.1677L1041.36 17.9649C1037.81 6.59262 1029.49 0 1017.13 0C1000.4 0 991.252 12.4436 991.252 28.3482C991.252 44.2529 1000.4 56.6965 1017.13 56.6965ZM1065.67 56.0372V30.9029H1094.76V56.0372H1101.93V0.824078H1094.76V24.5575H1065.67V0.824078H1058.5V56.0372H1065.67Z" fill="white"/>
<path d="M586.056 7.02316H625.183V1.18457H586.056V7.02316Z" fill="#A02710"/>
<path d="M586.056 31.9411H625.183V26.1025H586.056V31.9411Z" fill="#A02710"/>
<path d="M586.056 56.8571H625.183V51.0186H586.056V56.8571Z" fill="#A02710"/>
<path d="M691.531 7.02316H730.658V1.18457H691.531V7.02316Z" fill="#A02710"/>
<path d="M691.529 31.9411H730.656V26.1025H691.529V31.9411Z" fill="#A02710"/>
<path d="M691.531 56.8571H730.658V51.0186H691.531V56.8571Z" fill="#A02710"/>
<path d="M1267.09 0.824078H1259.92V56.0372H1267.09V0.824078ZM1307.88 56.6965C1320.57 56.6965 1327.66 46.9724 1328.07 34.6936L1330.3 56.0372H1334.75V28.3482H1310.36V34.6936H1327.25C1325.19 44.0057 1320.99 49.9391 1310.36 49.9391C1298.41 49.9391 1292.89 40.9566 1292.89 28.3482C1292.89 15.7399 1298.57 6.75743 1311.1 6.75743C1320.82 6.75743 1326.26 12.6908 1328.16 20.5195L1334.58 16.3167C1330.88 5.85095 1322.55 0 1311.02 0C1294.37 0 1285.3 12.1963 1285.3 28.3482C1285.3 45.077 1293.13 56.6965 1307.88 56.6965ZM1415.67 56.0372V20.1075L1415.26 12.7732L1420.2 20.1075L1445.5 56.0372H1451.93V0.824078H1444.76V36.0946L1445.17 44.5002L1439.49 35.9298L1414.85 0.824078H1408.5V56.0372H1415.67ZM1492.89 56.8613C1503.6 56.8613 1511.59 51.0928 1511.59 41.5335C1511.59 30.6557 1503.02 27.6066 1495.19 25.7112L1489.18 24.2279C1482.83 22.6621 1478.79 20.6019 1478.79 15.0806C1478.79 9.97133 1483.33 6.92225 1489.43 6.92225C1496.59 6.92225 1502.2 9.97133 1504.84 17.4704L1510.85 12.6908C1507.47 4.45002 1499.56 0.0824127 1489.59 0.0824127C1479.95 0.0824127 1471.21 5.52132 1471.21 15.5751C1471.21 25.9584 1479.54 29.2547 1486.87 30.9029L1492.06 32.0566C1499.4 33.7872 1504.26 35.3529 1504.26 41.6983C1504.26 47.714 1499.07 50.1039 1492.89 50.1039C1485.96 50.1039 1477.39 46.89 1474.84 37.9075L1469.4 42.6872C1473.03 52.9057 1482.5 56.8613 1492.89 56.8613Z" fill="white"/>
<path d="M1355.14 7.02316H1394.26V1.18457H1355.14V7.02316Z" fill="#A02710"/>
<path d="M1355.14 31.9411H1394.26V26.1025H1355.14V31.9411Z" fill="#A02710"/>
<path d="M1355.14 56.8571H1394.26V51.0186H1355.14V56.8571Z" fill="#A02710"/>
<path d="M1205.86 7.02316H1244.99V1.18457H1205.86V7.02316Z" fill="#A02710"/>
<path d="M1205.86 31.9411H1244.99V26.1025H1205.86V31.9411Z" fill="#A02710"/>
<path d="M1205.86 56.8571H1244.99V51.0186H1205.86V56.8571Z" fill="#A02710"/>
<path d="M1677.71 0.824078H1670.54V56.0372H1677.71V0.824078ZM1706.96 56.0372V20.1075L1706.55 12.7732L1711.49 20.1075L1736.79 56.0372H1743.22V0.824078H1736.05V36.0946L1736.46 44.5002L1730.78 35.9298L1706.14 0.824078H1699.79V56.0372H1706.96ZM1772.47 56.0372V33.2927H1796.95V26.9473H1772.47V7.16947H1802.3V0.824078H1765.3V56.0372H1772.47ZM1815.24 56.0372L1821.26 40.627H1845.4L1851.42 56.0372H1859.33L1837.08 0.824078H1829.91L1807.66 56.0372H1815.24ZM1830.57 16.8112L1833.37 8.15837L1836.09 16.8112L1842.93 34.2816H1823.73L1830.57 16.8112ZM1908.28 56.0372V49.6918H1879.35V0.824078H1872.19V56.0372H1908.28ZM1957.81 56.0372V49.6918H1928.88V0.824078H1921.71V56.0372H1957.81ZM1992.17 56.8613C2002.88 56.8613 2010.87 51.0928 2010.87 41.5335C2010.87 30.6557 2002.3 27.6066 1994.48 25.7112L1988.46 24.2279C1982.11 22.6621 1978.08 20.6019 1978.08 15.0806C1978.08 9.97133 1982.61 6.92225 1988.71 6.92225C1995.88 6.92225 2001.48 9.97133 2004.12 17.4704L2010.13 12.6908C2006.75 4.45002 1998.84 0.0824127 1988.87 0.0824127C1979.23 0.0824127 1970.5 5.52131 1970.5 15.5751C1970.5 25.9584 1978.82 29.2547 1986.15 30.9029L1991.34 32.0566C1998.68 33.7871 2003.54 35.3529 2003.54 41.6983C2003.54 47.714 1998.35 50.1039 1992.17 50.1039C1985.25 50.1039 1976.68 46.89 1974.12 37.9075L1968.68 42.6872C1972.31 52.9057 1981.79 56.8613 1992.17 56.8613ZM2036.09 56.0372V34.0344H2044.91C2050.35 34.0344 2053.31 35.3529 2055.37 39.0612L2065.1 56.0372H2073.5L2063.62 38.9788C2061.88 35.9298 2059.82 34.1992 2057.27 33.3751C2065.76 32.2214 2071.77 26.6177 2071.77 17.8001C2071.77 6.75743 2063.78 0.824078 2052.98 0.824078H2028.92V56.0372H2036.09ZM2051.83 7.16947C2058.42 7.16947 2064.36 9.5593 2064.36 17.8001C2064.36 25.6288 2058.42 28.0186 2051.83 28.0186H2036.09V7.16947H2051.83ZM2149.65 0.824078H2142.48V56.0372H2149.65V0.824078ZM2193.74 56.6965C2206.1 56.6965 2214.42 50.1039 2217.96 38.7316L2211.54 34.5288C2209.72 43.7585 2204.28 49.9391 2193.82 49.9391C2181.21 49.9391 2175.44 40.9566 2175.44 28.3482C2175.44 15.7399 2181.21 6.75743 2193.82 6.75743C2204.28 6.75743 2209.72 12.938 2211.54 22.1677L2217.96 17.9649C2214.42 6.59262 2206.1 0 2193.74 0C2177.01 0 2167.86 12.4436 2167.86 28.3482C2167.86 44.2529 2177.01 56.6965 2193.74 56.6965ZM2242.27 56.0372V30.9029H2271.36V56.0372H2278.53V0.824078H2271.36V24.5575H2242.27V0.824078H2235.1V56.0372H2242.27Z" fill="white"/>
<path d="M2088.84 7.02316H2127.97V1.18457H2088.84V7.02316Z" fill="#A02710"/>
<path d="M2088.84 31.9411H2127.97V26.1025H2088.84V31.9411Z" fill="#A02710"/>
<path d="M2088.84 56.8571H2127.97V51.0186H2088.84V56.8571Z" fill="#A02710"/>
<path d="M1616.48 7.02316H1655.6V1.18457H1616.48V7.02316Z" fill="#A02710"/>
<path d="M1616.48 31.9411H1655.6V26.1025H1616.48V31.9411Z" fill="#A02710"/>
<path d="M1616.48 56.8571H1655.6V51.0186H1616.48V56.8571Z" fill="#A02710"/>
<circle cx="528" cy="29" r="5" fill="#A02710"/>
<circle cx="5" cy="29" r="5" fill="#A02710"/>
<circle cx="1154" cy="29" r="5" fill="#A02710"/>
<circle cx="1564" cy="29" r="5" fill="#A02710"/>
</svg>
