<svg width="335" height="94" viewBox="0 0 335 94" fill="none" xmlns="http://www.w3.org/2000/svg">
<path d="M144.809 35.1669H152.324L143.509 20.9071C149.097 19.4618 151.168 15.2233 151.168 11.3213C151.168 6.02197 148.23 0.963512 138.787 0.963512H121.3V35.1669H127.997V21.7749H136.619L144.809 35.1669ZM127.997 5.92472H137.535C142.546 5.92472 144.182 8.38289 144.182 11.3692C144.182 14.4034 142.496 16.9573 137.535 16.9573H127.997V5.92472ZM183.494 36.1304C194.911 36.1304 202.376 29.097 202.376 18.0644C202.376 6.98549 194.911 0 183.494 0C172.077 0 164.609 6.98549 164.609 18.0644C164.609 29.0491 172.077 36.1304 183.494 36.1304ZM183.494 30.8789C176.17 30.8789 171.595 25.8204 171.595 18.0644C171.595 10.2127 176.17 5.25146 183.494 5.25146C190.816 5.25146 195.392 10.2127 195.392 18.0644C195.392 25.9177 190.816 30.8789 183.494 30.8789ZM243.517 0.963512H212.061V6.31073H224.442V35.1669H231.137V6.31073H243.517V0.963512ZM302.675 35.1669H308.745V12.8623C308.745 11.1283 308.697 9.77879 308.649 8.43076H308.793C309.274 9.68304 310.142 11.0311 311.056 12.4285L327.822 35.1669H334.999V0.963512H328.977V23.075C328.977 24.809 328.977 26.2064 329.026 27.556H328.929C328.4 26.2543 327.629 24.9542 326.618 23.5089L310.238 0.963512H302.675V35.1669Z" fill="#A02710"/>
<path d="M24.2815 75.1993C28.4244 74.1879 30.4471 71.1043 30.4471 67.6363C30.4471 63.1553 27.3651 58.7716 18.8864 58.7716H0.67688V92.975H19.464C28.1356 92.975 31.3628 88.3983 31.3628 83.437C31.3628 78.9561 28.9061 75.9219 24.2815 75.1993ZM17.6342 63.6865C22.3545 63.6865 23.6547 66.0459 23.6547 68.3589C23.6547 70.6705 22.5954 73.1765 17.6342 73.1765H7.37212V63.6865H17.6342ZM18.2117 88.0616H7.37212V77.8968H18.4047C22.7405 77.8968 24.5703 80.0169 24.5703 82.9074C24.5703 85.798 22.8363 88.0616 18.2117 88.0616ZM47.9341 92.975H73.6109V87.532H54.6308V58.7716H47.9341V92.975ZM95.7224 87.8686V77.9941H115.088V73.0314H95.7224V63.878H115.907V58.7716H89.0257V92.975H116.243V87.8686H95.7224ZM140.234 58.7716H133.537V92.975H140.234V58.7716ZM174.583 93.9385C184.025 93.9385 189.806 89.3139 191.829 82.0875L185.132 80.7874C183.88 85.7007 180.219 88.5434 174.776 88.5434C167.356 88.5434 162.973 83.2919 162.973 75.8262C162.973 68.118 167.356 63.1553 174.631 63.1553C180.364 63.1553 183.977 66.191 184.94 71.2495L191.829 70.2381C190.336 62.6257 184.361 57.8081 174.824 57.8081C163.213 57.8081 156.035 65.1302 156.035 75.874C156.035 86.4712 162.684 93.9385 174.583 93.9385ZM240.195 58.7716H233.498V72.9835H214.422V58.7716H207.725V92.975H214.422V78.1377H233.498V92.975H240.195V58.7716ZM327.004 92.975H334.519L325.704 78.7167C331.292 77.2714 333.362 73.0314 333.362 69.1294C333.362 63.8301 330.424 58.7716 320.982 58.7716H303.495V92.975H310.192V79.583H318.814L327.004 92.975ZM310.192 63.7343H319.729C324.74 63.7343 326.377 66.191 326.377 69.1773C326.377 72.213 324.691 74.7654 319.729 74.7654H310.192V63.7343Z" fill="#A02710"/>
</svg>
