<svg width="720" height="203" viewBox="0 0 720 203" fill="none" xmlns="http://www.w3.org/2000/svg">
<path d="M310.387 75.7314H326.571L307.588 45.0232C319.621 41.9108 324.081 32.7831 324.081 24.3803C324.081 12.9683 317.753 2.07492 297.419 2.07492H259.761V75.7314H274.183V46.8919H292.751L310.387 75.7314ZM274.183 12.7588H294.722C305.513 12.7588 309.037 18.0525 309.037 24.4834C309.037 31.0175 305.406 36.5173 294.722 36.5173H274.183V12.7588ZM393.694 77.8063C418.28 77.8063 434.357 62.66 434.357 38.9015C434.357 15.0432 418.28 0 393.694 0C369.107 0 353.026 15.0432 353.026 38.9015C353.026 62.5569 369.107 77.8063 393.694 77.8063ZM393.694 66.4973C377.922 66.4973 368.07 55.604 368.07 38.9015C368.07 21.9929 377.922 11.309 393.694 11.309C409.462 11.309 419.317 21.9929 419.317 38.9015C419.317 55.8134 409.462 66.4973 393.694 66.4973ZM522.954 2.07492H455.213V13.5901H481.874V75.7314H496.292V13.5901H522.954V2.07492ZM650.349 75.7314H663.42V27.6989C663.42 23.9647 663.317 21.0585 663.214 18.1556H663.523C664.561 20.8523 666.43 23.7553 668.398 26.7645L704.503 75.7314H719.959V2.07492H706.99V49.6918C706.99 53.426 706.99 56.4353 707.097 59.3414H706.887C705.747 56.5384 704.087 53.7385 701.909 50.6261L666.636 2.07492H650.349V75.7314Z" fill="#BAB2FF"/>
<path d="M50.8323 161.941C59.7538 159.763 64.1099 153.123 64.1099 145.654C64.1099 136.004 57.4727 126.564 39.2141 126.564H0V200.221H40.4577C59.132 200.221 66.0817 190.365 66.0817 179.681C66.0817 170.031 60.7913 163.497 50.8323 161.941ZM36.5173 137.148C46.6825 137.148 49.4823 142.229 49.4823 147.21C49.4823 152.188 47.2012 157.585 36.5173 157.585H14.4181V137.148H36.5173ZM37.761 189.64H14.4181V167.75H38.1766C47.5137 167.75 51.4541 172.316 51.4541 178.54C51.4541 184.765 47.7199 189.64 37.761 189.64ZM101.768 200.221H157.062V188.499H116.189V126.564H101.768V200.221ZM204.679 189.224V167.959H246.384V157.272H204.679V137.561H248.146V126.564H190.258V200.221H248.871V189.224H204.679ZM300.535 126.564H286.113V200.221H300.535V126.564ZM374.504 202.296C394.837 202.296 407.287 192.337 411.643 176.775L397.222 173.975C394.525 184.556 386.641 190.677 374.919 190.677C358.942 190.677 349.502 179.368 349.502 163.291C349.502 146.692 358.942 136.004 374.607 136.004C386.953 136.004 394.734 142.542 396.809 153.435L411.643 151.257C408.427 134.864 395.562 124.489 375.022 124.489C350.02 124.489 334.561 140.257 334.561 163.394C334.561 186.215 348.88 202.296 374.504 202.296ZM515.798 126.564H501.377V157.169H460.297V126.564H445.876V200.221H460.297V168.269H501.377V200.221H515.798V126.564ZM702.741 200.221H718.924L699.941 169.516C711.975 166.403 716.434 157.272 716.434 148.87C716.434 137.458 710.106 126.564 689.772 126.564H652.115V200.221H666.536V171.381H685.104L702.741 200.221ZM666.536 137.251H687.076C697.866 137.251 701.391 142.542 701.391 148.973C701.391 155.51 697.759 161.007 687.076 161.007H666.536V137.251Z" fill="#BAB2FF"/>
<path d="M556.844 13.2338H613.453V1.83789H556.844V13.2338Z" fill="#8E210D"/>
<path d="M556.844 137.725H613.453V126.329H556.844V137.725Z" fill="#8E210D"/>
<path d="M556.844 44.6049H613.453V33.209H556.844V44.6049Z" fill="#8E210D"/>
<path d="M556.844 169.088H613.453V157.698H556.844V169.088Z" fill="#8E210D"/>
<path d="M556.844 75.9672H613.453V64.5713H556.844V75.9672Z" fill="#8E210D"/>
<path d="M556.844 200.457H613.453V189.061H556.844V200.457Z" fill="#8E210D"/>
</svg>
