<svg width="706" height="95" viewBox="0 0 706 95" fill="none" xmlns="http://www.w3.org/2000/svg">
<path d="M85.365 1.32373V94.5528H97.5766V56.148H139.276V45.4345H97.5766V12.0384H148.402V1.32373H85.365ZM173.815 1.32373V94.5528H186.03V56.148H227.728V45.4345H186.03V12.0384H236.854V1.32373H173.815ZM262.267 94.5528H274.482V1.32373H262.267V94.5528ZM303.825 1.32373V12.0384H344.261L357.322 11.3422L343.699 28.3188L301.017 84.9514V94.5528H372.622V83.8382H323.341L313.797 84.5343L323.625 72.1505L369.814 10.9252V1.32373H303.825ZM397.333 94.5528H409.548V1.32373H397.333V94.5528ZM601.054 1.32373V60.8798L601.755 75.0719L592.068 60.6039L550.088 1.32373H539.277V94.5528H551.492V33.8847L550.791 21.504L559.214 33.8847L602.318 94.5528H613.269V1.32373H601.054ZM634.329 1.32373V12.0384H664.094V94.5528H676.168V12.0384H705.933V1.32373H634.329Z" fill="#A02710"/>
<rect x="449.034" y="0.599121" width="61.784" height="9.213" fill="white"/>
<rect x="449.034" y="42.9609" width="61.784" height="9.219" fill="white"/>
<rect x="449.034" y="85.3271" width="61.784" height="9.22" fill="white"/>
<rect y="0.599121" width="61.784" height="9.213" fill="white"/>
<rect y="42.9609" width="61.784" height="9.219" fill="white"/>
<rect y="85.3271" width="61.784" height="9.22" fill="white"/>
</svg>
