<svg width="938" height="95" viewBox="0 0 938 95" fill="none" xmlns="http://www.w3.org/2000/svg">
<path d="M877.817 93.2369V51.7072H925.883V93.2369H937.729V2.00753H925.883V41.2227H877.817V2.00753H865.971V93.2369H877.817ZM797.616 94.3269C818.041 94.3269 831.793 83.4339 837.649 64.6428L827.028 57.6983C824.033 72.9494 815.046 83.1609 797.753 83.1609C776.919 83.1609 767.388 68.3193 767.388 47.4867C767.388 26.6531 776.919 11.8116 797.753 11.8116C815.046 11.8116 824.033 22.0231 827.028 37.2742L837.649 30.3297C831.793 11.5386 818.041 0.645508 797.616 0.645508C769.975 0.645508 754.861 21.2061 754.861 47.4867C754.861 73.7664 769.975 94.3269 797.616 94.3269ZM699.034 94.5989C716.735 94.5989 729.943 85.0679 729.943 69.2728C729.943 51.2987 715.782 46.2612 702.846 43.1287L692.906 40.6777C682.422 38.0912 675.749 34.6867 675.749 25.5641C675.749 17.1221 683.239 12.0836 693.315 12.0836C705.162 12.0836 714.421 17.1221 718.778 29.5126L728.717 21.6146C723.135 7.99855 710.063 0.78202 693.587 0.78202C677.656 0.78202 663.222 9.76907 663.222 26.3811C663.222 43.5372 676.975 48.9842 689.093 51.7072L697.672 53.6132C709.791 56.4728 717.824 59.0603 717.824 69.5448C717.824 79.4844 709.245 83.4339 699.034 83.4339C687.596 83.4339 673.435 78.1234 669.213 63.2808L660.227 71.1788C666.218 88.0629 681.877 94.5989 699.034 94.5989ZM631.36 2.00753H619.514V93.2369H631.36V2.00753ZM502.689 93.2369V42.8567L501.191 18.2111L511.403 40.8142L531.011 77.9869H542.585L562.192 40.8142L572.268 18.2111L571.044 42.8567V93.2369H582.889V2.00753H569.682L545.988 47.2137L536.866 67.2303L527.607 47.2137L504.05 2.00753H490.843V93.2369H502.689ZM454.351 2.00753H442.504V93.2369H454.351V2.00753ZM256.777 93.2369V51.7072H304.843V93.2369H316.688V2.00753H304.843V41.2227H256.777V2.00753H244.931V93.2369H256.777ZM148.53 93.2369V33.8697L147.849 21.7511L156.019 33.8697L197.821 93.2369H208.442V2.00753H196.596V60.2858L197.276 74.1749L187.881 60.0138L147.168 2.00753H136.684V93.2369H148.53ZM100.192 2.00753H88.345V93.2369H100.192V2.00753Z" fill="#A02710"/>
<rect x="350.203" y="2.61035" width="64.654" height="9.64686" fill="white"/>
<rect x="350.203" y="43.7759" width="64.6509" height="9.64685" fill="white"/>
<rect x="350.203" y="84.9443" width="64.654" height="9.64686" fill="white"/>
<rect y="2.61035" width="64.6509" height="9.64686" fill="white"/>
<rect y="43.7759" width="64.6509" height="9.64685" fill="white"/>
<rect y="84.9443" width="64.6509" height="9.64686" fill="white"/>
</svg>
