<svg width="877" height="94" viewBox="0 0 877 94" fill="none" xmlns="http://www.w3.org/2000/svg">
<path d="M102.328 93.4103V56.2794H117.208C126.386 56.2794 131.393 58.5045 134.869 64.7625L151.279 93.4103H165.464L148.776 64.6234C145.856 59.478 142.379 56.5575 138.068 55.1669C152.392 53.2199 162.544 43.7634 162.544 28.8832C162.544 10.2482 149.054 0.235352 130.836 0.235352H90.2288V93.4103H102.328ZM128.889 10.9435C140.015 10.9435 150.028 14.9765 150.028 28.8832C150.028 42.0946 140.015 46.1275 128.889 46.1275H102.328V10.9435H128.889ZM202.734 93.4103V63.3718L219.422 46.1275L251.686 93.4103H266.844L228.322 37.3663L264.341 0.235352H249.183L215.946 34.4459L202.178 49.0479L202.734 30.552V0.235352H190.635V93.4103H202.734ZM394.369 93.4103V32.7771L393.673 20.4001L402.017 32.7771L444.711 93.4103H455.558V0.235352H443.459V59.7561L444.155 73.9409L434.559 59.478L392.978 0.235352H382.27V93.4103H394.369ZM504.927 93.4103V32.7771L504.232 20.4001L512.576 32.7771L555.269 93.4103H566.117V0.235352H554.018V59.7561L554.713 73.9409L545.117 59.478L503.536 0.235352H492.828V93.4103H504.927ZM642.047 93.4103C662.208 93.4103 674.168 84.2319 674.168 68.3783C674.168 56.4185 667.357 46.8228 647.885 44.7368C663.464 43.068 669.996 34.0287 669.996 24.0158C669.996 9.83098 660.54 0.235352 642.739 0.235352H603.383V93.4103H642.047ZM638.571 10.9435C649.692 10.9435 657.484 14.4202 657.484 25.5456C657.484 36.81 649.831 40.1476 639.127 40.1476H615.482V10.9435H638.571ZM640.514 50.9949C652.613 50.9949 661.652 55.5841 661.652 66.8485C661.652 77.9739 654.838 82.7022 640.1 82.7022H615.482V50.9949H640.514ZM705.319 93.4103L715.471 67.4048H756.218L766.37 93.4103H779.72L742.172 0.235352H730.073L692.525 93.4103H705.319ZM731.186 27.2144L735.914 12.6123L740.503 27.2144L752.046 56.6966H719.643L731.186 27.2144ZM813.513 93.4103V56.2794H828.394C837.572 56.2794 842.579 58.5045 846.055 64.7625L862.465 93.4103H876.65L859.962 64.6234C857.042 59.478 853.565 56.5575 849.254 55.1669C863.578 53.2199 873.73 43.7634 873.73 28.8832C873.73 10.2482 860.24 0.235352 842.022 0.235352H801.415V93.4103H813.513ZM840.075 10.9435C851.201 10.9435 861.214 14.9765 861.214 28.8832C861.214 42.0946 851.201 46.1275 840.075 46.1275H813.513V10.9435H840.075Z" fill="#A02710"/>
<path d="M293.119 9.85291H359.151V0H293.119V9.85291Z" fill="white"/>
<path d="M0 9.85291H66.0291V0H0V9.85291Z" fill="white"/>
<path d="M293.119 51.9027H359.148V42.0498H293.119V51.9027Z" fill="white"/>
<path d="M0 51.9066H66.0291V42.0537H0V51.9066Z" fill="white"/>
<path d="M293.119 93.9501H359.151V84.0972H293.119V93.9501Z" fill="white"/>
<path d="M0 93.9501H66.0291V84.0972H0V93.9501Z" fill="white"/>
</svg>
